ffmpeg version 2.8.11-0ubuntu0.16.04.1 Copyright (c) 2000-2017 the FFmpeg developers
  built with gcc 5.4.0 (Ubuntu 5.4.0-6ubuntu1~16.04.4) 20160609
  configuration: --prefix=/usr --extra-version=0ubuntu0.16.04.1 --build-suffix=-ffmpeg --toolchain=hardened --libdir=/usr/lib/x86_64-linux-gnu --incdir=/usr/include/x86_64-linux-gnu --cc=cc --cxx=g++ --enable-gpl --enable-shared --disable-stripping --disable-decoder=libopenjpeg --disable-decoder=libschroedinger --enable-avresample --enable-avisynth --enable-gnutls --enable-ladspa --enable-libass --enable-libbluray --enable-libbs2b --enable-libcaca --enable-libcdio --enable-libflite --enable-libfontconfig --enable-libfreetype --enable-libfribidi --enable-libgme --enable-libgsm --enable-libmodplug --enable-libmp3lame --enable-libopenjpeg --enable-libopus --enable-libpulse --enable-librtmp --enable-libschroedinger --enable-libshine --enable-libsnappy --enable-libsoxr --enable-libspeex --enable-libssh --enable-libtheora --enable-libtwolame --enable-libvorbis --enable-libvpx --enable-libwavpack --enable-libwebp --enable-libx265 --enable-libxvid --enable-libzvbi --enable-openal --enable-opengl --enable-x11grab --enable-libdc1394 --enable-libiec61883 --enable-libzmq --enable-frei0r --enable-libx264 --enable-libopencv
  libavutil      54. 31.100 / 54. 31.100
  libavcodec     56. 60.100 / 56. 60.100
  libavformat    56. 40.101 / 56. 40.101
  libavdevice    56.  4.100 / 56.  4.100
  libavfilter     5. 40.101 /  5. 40.101
  libavresample   2.  1.  0 /  2.  1.  0
  libswscale      3.  1.101 /  3.  1.101
  libswresample   1.  2.101 /  1.  2.101
  libpostproc    53.  3.100 / 53.  3.100
[mp3 @ 0x11208c0] Unknown attached picture mimetype: ('image/png', None), skipping.
[mp3 @ 0x11208c0] Skipping 0 bytes of junk at 17522.
Input #0, mp3, from 'adam-mickiewicz-sonety-krymskie-widok-gor-ze-stepow-kozlowa.mp3':
  Metadata:
    title           : Adam Mickiewicz, Sonety krymskie, Widok gór ze stepów Kozłowa
    artist          : Jan Dravnel
    album           : Wolne Lektury
    encoder         : Lavf53.21.0
    genre           : Speech
    originator_reference: cSkUAaqwHxjaaaGk
    date            : 2008-10-16
    performer       : Sebastian Buttny
    album_artist    : Fundacja Nowoczesna Polska
    time_reference  : 767919389
    copyright       : 2008 Fundacja Nowoczesna Polska. Licensed to the public under http://creativecommons.org/licenses/by-sa/3.0/deed.pl verify at http://wolnelektury.pl/katalog/lektura/sonety-krymskie-widok-gor-ze-stepow-kozlowa/
    creation_time   : 0009-57-49
    encoded_by      : Pro Tools
    publisher       : Fundacja Nowoczesna Polska
  Duration: 00:01:38.77, start: 0.000000, bitrate: 65 kb/s
    Stream #0:0: Audio: mp3, 44100 Hz, mono, s16p, 64 kb/s
Output #0, null, to 'pipe:':
  Metadata:
    title           : Adam Mickiewicz, Sonety krymskie, Widok gór ze stepów Kozłowa
    artist          : Jan Dravnel
    album           : Wolne Lektury
    publisher       : Fundacja Nowoczesna Polska
    genre           : Speech
    originator_reference: cSkUAaqwHxjaaaGk
    date            : 2008-10-16
    performer       : Sebastian Buttny
    album_artist    : Fundacja Nowoczesna Polska
    time_reference  : 767919389
    copyright       : 2008 Fundacja Nowoczesna Polska. Licensed to the public under http://creativecommons.org/licenses/by-sa/3.0/deed.pl verify at http://wolnelektury.pl/katalog/lektura/sonety-krymskie-widok-gor-ze-stepow-kozlowa/
    encoded_by      : Pro Tools
    encoder         : Lavf56.40.101
    Stream #0:0: Audio: pcm_s16le, 44100 Hz, mono, s16, 705 kb/s
    Metadata:
      encoder         : Lavc56.60.100 pcm_s16le
Stream mapping:
  Stream #0:0 -> #0:0 (mp3 (native) -> pcm_s16le (native))
Press [q] to stop, [?] for help
[silencedetect @ 0x1133ae0] silence_start: -0.00367347
[silencedetect @ 0x1133ae0] silence_end: 0.548571 | silence_duration: 0.552245
[silencedetect @ 0x1133ae0] silence_start: 1.56367
[silencedetect @ 0x1133ae0] silence_end: 2.40327 | silence_duration: 0.839592
[silencedetect @ 0x1133ae0] silence_start: 3.41837
[silencedetect @ 0x1133ae0] silence_end: 4.96327 | silence_duration: 1.5449
[silencedetect @ 0x1133ae0] silence_start: 7.33673
[silencedetect @ 0x1133ae0] silence_end: 8.30694 | silence_duration: 0.970204
[silencedetect @ 0x1133ae0] silence_start: 9.58327
[silencedetect @ 0x1133ae0] silence_end: 12.7739 | silence_duration: 3.19061
[silencedetect @ 0x1133ae0] silence_start: 13.2927
[silencedetect @ 0x1133ae0] silence_end: 16.6922 | silence_duration: 3.39959
[silencedetect @ 0x1133ae0] silence_start: 17.0282
[silencedetect @ 0x1133ae0] silence_end: 18.5731 | silence_duration: 1.5449
[silencedetect @ 0x1133ae0] silence_start: 21.1033
[silencedetect @ 0x1133ae0] silence_end: 23.5624 | silence_duration: 2.45918
[silencedetect @ 0x1133ae0] silence_start: 26.4584
[silencedetect @ 0x1133ae0] silence_end: 29.1265 | silence_duration: 2.66816
[silencedetect @ 0x1133ae0] silence_start: 34.9482
[silencedetect @ 0x1133ae0] silence_end: 37.0939 | silence_duration: 2.14571
[silencedetect @ 0x1133ae0] silence_start: 38.4224
[silencedetect @ 0x1133ae0] silence_end: 40.0457 | silence_duration: 1.62327
[silencedetect @ 0x1133ae0] silence_start: 41.2698
[silencedetect @ 0x1133ae0] silence_end: 43.3371 | silence_duration: 2.06735
[silencedetect @ 0x1133ae0] silence_start: 49.6029
[silencedetect @ 0x1133ae0] silence_end: 50.5208 | silence_duration: 0.917959
[silencedetect @ 0x1133ae0] silence_start: 53.1294
[silencedetect @ 0x1133ae0] silence_end: 55.6408 | silence_duration: 2.51143
[silencedetect @ 0x1133ae0] silence_start: 56.1073
[silencedetect @ 0x1133ae0] silence_end: 57.9396 | silence_duration: 1.83224
[silencedetect @ 0x1133ae0] silence_start: 58.2494
[silencedetect @ 0x1133ae0] silence_end: 59.4286 | silence_duration: 1.17918
[silencedetect @ 0x1133ae0] silence_start: 59.869
[silencedetect @ 0x1133ae0] silence_end: 61.0482 | silence_duration: 1.17918
[silencedetect @ 0x1133ae0] silence_start: 61.7498
[silencedetect @ 0x1133ae0] silence_end: 63.6604 | silence_duration: 1.91061
[silencedetect @ 0x1133ae0] silence_start: 66.6086
[silencedetect @ 0x1133ae0] silence_end: 67.1086 | silence_duration: 0.5
[silencedetect @ 0x1133ae0] silence_start: 68.3327
[silencedetect @ 0x1133ae0] silence_end: 69.5641 | silence_duration: 1.23143
[silencedetect @ 0x1133ae0] silence_start: 70.1612
[silencedetect @ 0x1133ae0] silence_end: 70.9747 | silence_duration: 0.813469
[silencedetect @ 0x1133ae0] silence_start: 72.3294
[silencedetect @ 0x1133ae0] silence_end: 73.378 | silence_duration: 1.04857
[silencedetect @ 0x1133ae0] silence_start: 74.3408
[silencedetect @ 0x1133ae0] silence_end: 76.2776 | silence_duration: 1.93673
[silencedetect @ 0x1133ae0] silence_start: 77.998
[silencedetect @ 0x1133ae0] silence_end: 79.0204 | silence_duration: 1.02245
[silencedetect @ 0x1133ae0] silence_start: 80.5841
[silencedetect @ 0x1133ae0] silence_end: 81.2931 | silence_duration: 0.70898
[silencedetect @ 0x1133ae0] silence_start: 82.0992
[silencedetect @ 0x1133ae0] silence_end: 83.0955 | silence_duration: 0.996327
[silencedetect @ 0x1133ae0] silence_start: 84.7376
[silencedetect @ 0x1133ae0] silence_end: 86.0473 | silence_duration: 1.3098
[silencedetect @ 0x1133ae0] silence_start: 86.6967
[silencedetect @ 0x1133ae0] silence_end: 87.458 | silence_duration: 0.761224
[silencedetect @ 0x1133ae0] silence_start: 89.962
[silencedetect @ 0x1133ae0] silence_end: 91.2457 | silence_duration: 1.28367
[silencedetect @ 0x1133ae0] silence_start: 92.1041
[silencedetect @ 0x1133ae0] silence_end: 94.0408 | silence_duration: 1.93673
[silencedetect @ 0x1133ae0] silence_start: 94.4812
[silencedetect @ 0x1133ae0] silence_end: 95.7649 | silence_duration: 1.28367
[silencedetect @ 0x1133ae0] silence_start: 96.2053
size=N/A time=00:01:38.76 bitrate=N/A    
video:0kB audio:8507kB subtitle:0kB other streams:0kB global headers:0kB muxing overhead: unknown
